<svg xmlns="http://www.w3.org/2000/svg" viewBox="0 0 768 768" fill="none" shape-rendering="auto"><metadata xmlns:rdf="http://www.w3.org/1999/02/22-rdf-syntax-ns#" xmlns:xsi="http://www.w3.org/2001/XMLSchema-instance" xmlns:dc="http://purl.org/dc/elements/1.1/" xmlns:dcterms="http://purl.org/dc/terms/"><rdf:RDF><rdf:Description><dc:title>ToonHead</dc:title><dc:creator>Johan Melin</dc:creator><dc:source xsi:type="dcterms:URI">https://www.figma.com/community/file/1589627891082866389</dc:source><dcterms:license xsi:type="dcterms:URI">https://creativecommons.org/licenses/by/4.0/</dcterms:license><dc:rights>Remix of „ToonHead” (https://www.figma.com/community/file/1589627891082866389) by „Johan Melin”, licensed under „CC BY 4.0” (https://creativecommons.org/licenses/by/4.0/)</dc:rights></rdf:Description></rdf:RDF></metadata><mask id="viewboxMask"><rect width="768" height="768" rx="0" ry="0" x="0" y="0" fill="#fff" /></mask><g mask="url(#viewboxMask)"><g transform="translate(0 10)"></g><path d="M432.5 556.5v69.45l.4.07c120.31 22.8 211.36 128.92 211.6 256.48h-520c.24-127.56 91.29-233.7 211.6-256.48l.4-.07V556.5z" fill="#c68e7a" stroke="black"/><path d="M336 556h97v37s-30.58 9.4-49 9.5c-19.59.1-48-9.5-48-9.5z" fill="black" fill-opacity="0.2"/><path d="M191.5 452.5c-20-77.5 33.5-50 33.5-50C189.18 286.68 217 140 384 140s194.82 146.68 159 262.5c0 0 53.5-27.5 33.5 50-11.1 43-51 43-51 43C519.57 545.9 434 591 384 591s-135.57-45.1-141.5-95.5c0 0-39.9 0-51-43Z" fill="#c68e7a" stroke="black"/><path d="M202.22 410c19.81-10.14 38.7 54.5 30 69-16.5 8.5-55-56.21-30-69m363.96 0c-19.82-10.14-38.7 54.5-30 69 16.5 8.5 55-56.21 30-69M384 469.5c-7.81 0-18-7.5-16-9.5 2-3 8.19 3 16 3s14-6 16-3c1.81 2.17-8.19 9.5-16 9.5" fill="black" fill-opacity="0.2"/><path d="M455 878.5V648s-40.54 28.56-71 27-68.5-27-68.5-27v230.5z" fill="#151613"/><path d="M455 878.5V648s-40.54 28.56-71 27-68.5-27-68.5-27v230.5z" fill="black" fill-opacity="0.2" stroke="black"/><g fill="#151613"><path d="M610.5 679C591.42 661 433 624.5 433 624.5s14.17 26.29 15 50.5c2.69 78.5-5 205-5 205h217s-19.5-172.7-49.5-201M108 880h227.5s-8.95-126.5-8.5-205c.13-23.24 9.5-50.5 9.5-50.5s-102.1 16.64-129.5 33C171 679 108 880 108 880"/><path d="M610.5 679C591.42 661 433 624.5 433 624.5s14.17 26.29 15 50.5c2.69 78.5-5 205-5 205h217s-19.5-172.7-49.5-201ZM108 880h227.5s-8.95-126.5-8.5-205c.13-23.24 9.5-50.5 9.5-50.5s-102.1 16.64-129.5 33C171 679 108 880 108 880Z" stroke="black"/></g><mask id="mouthAgape-a" style="mask-type:alpha" maskUnits="userSpaceOnUse" x="363" y="487" width="41" height="52"><ellipse cx="383.5" cy="513" rx="20.5" ry="26" fill="#611519"/></mask><g mask="url(#mouthAgape-a)"><ellipse cx="383.5" cy="513" rx="20.5" ry="26" fill="#611519"/><ellipse cx="383.5" cy="538.5" rx="25.5" ry="14.5" fill="#E0564B"/></g><path d="M328.5 507.5c-38.9-8.65-3-33-3-33s-16 11.5-2.5 18c14.07 6.78 32.07-22.11 50.5-22 7.96.05 10.5 5.5 10.5 5.5s2.54-5.45 10.5-5.5c18.43-.11 36.43 28.78 50.5 22 13.5-6.5-2.5-18-2.5-18s35.9 24.35-3 33c-27 6-55.5-17.5-55.5-17.5s-28.5 23.5-55.5 17.5Z" fill="#d6b370" stroke="black"/><path d="m274.5 400.75-4.25 11c27.75 0 40.74 15.54 64.25 0C351.14 400.75 349 390 349 390s-2.75 16.93-41 16.93c-22.71 0-28-19-47-10zm218.59 0 4.23 11c-27.75 0-40.74 15.54-64.25 0-16.64-11-14.5-21.75-14.5-21.75s2.75 16.93 41 16.93c22.71 0 28-19 47-10z" fill="#4B2422"/><g fill="#d6b370"><path d="M302.87 328.48c14.96-3.04 24.47-23.2 36.31-14.78s-18.13 31.2-35.4 33.54c-14.8 2.02-39.28-5.72-37.33-8.45 1.94-2.74 21.93-7.37 36.42-10.3m163.35 0c-14.97-3.05-24.48-23.2-36.32-14.79s18.14 31.2 35.4 33.54c14.81 2.02 39.28-5.72 37.34-8.45-1.94-2.74-21.94-7.37-36.43-10.3"/><path d="M302.87 328.48c14.96-3.04 24.47-23.2 36.31-14.78s-18.13 31.2-35.4 33.54c-14.8 2.02-39.28-5.72-37.33-8.45 1.94-2.74 21.93-7.37 36.42-10.3Zm163.35 0c-14.97-3.04-24.48-23.2-36.32-14.78s18.14 31.2 35.4 33.54c14.81 2.02 39.28-5.72 37.34-8.45-1.94-2.74-21.94-7.37-36.43-10.3Z" stroke="black"/></g><path d="m543.5 402.5 13-5.5s28.48-120.79 13-178c-8.35-30.85-74-47.5-74-47.5s0-81.41-152-47c-105.94 23.98-164.98 107.13-146.5 205 5.57 29.49 13.47 40.2 19 69.5l8.5 3L249 297s70.6-1.43 112-15 100-54.5 100-54.5 39.82 28.78 56.5 54.5c26.2 40.39 26 120.5 26 120.5Z" fill="#d6b370" stroke="black"/></g></svg>