<svg xmlns="http://www.w3.org/2000/svg" viewBox="0 0 768 768" fill="none" shape-rendering="auto"><metadata xmlns:rdf="http://www.w3.org/1999/02/22-rdf-syntax-ns#" xmlns:xsi="http://www.w3.org/2001/XMLSchema-instance" xmlns:dc="http://purl.org/dc/elements/1.1/" xmlns:dcterms="http://purl.org/dc/terms/"><rdf:RDF><rdf:Description><dc:title>ToonHead</dc:title><dc:creator>Johan Melin</dc:creator><dc:source xsi:type="dcterms:URI">https://www.figma.com/community/file/1589627891082866389</dc:source><dcterms:license xsi:type="dcterms:URI">https://creativecommons.org/licenses/by/4.0/</dcterms:license><dc:rights>Remix of „ToonHead” (https://www.figma.com/community/file/1589627891082866389) by „Johan Melin”, licensed under „CC BY 4.0” (https://creativecommons.org/licenses/by/4.0/)</dc:rights></rdf:Description></rdf:RDF></metadata><mask id="viewboxMask"><rect width="768" height="768" rx="0" ry="0" x="0" y="0" fill="#fff" /></mask><g mask="url(#viewboxMask)"><g transform="translate(0 10)"><path d="M384.5 330c69.54 0 138.96 29.46 167.55 88.22 13.86 28.48 2.35 54.38-6.98 80.77-4.66 13.16-8.76 26.44-8.76 40.15 0 13.72 4.1 27.83 15.8 42.67 23.3 29.53 37.19 40.4 45.7 48.8 4.26 4.2 7.16 7.79 9.26 12.7 2.1 4.99 3.44 11.39 4.48 21.29 1.72 16.32-4.86 36.34-11.9 52.34a250 250 0 0 1-14.2 27.3q-.1.2-.18.3H183.8l-.15-.26-.83-1.58a261 261 0 0 1-11.54-25.91c-6.1-16.07-11.68-36.1-9.78-52.17 1.14-9.68 1.19-16.1 1.6-21.03.41-4.94 1.2-8.5 3.8-12.66 2.6-4.21 7.07-9.07 14.92-16.6 7.84-7.51 19.01-17.65 35.02-32.4 16.07-14.82 22.4-28.94 23.23-42.7.83-13.73-3.84-27.03-9.59-40.2-5.76-13.21-12.6-26.26-16.28-39.62-3.67-13.33-4.17-26.9 2.75-41.12 28.6-58.77 98-88.23 167.55-88.23Z" fill="#724133" stroke="black"/><path d="M387.98 330.5c46.34 0 92.72 29.32 111.85 88.04 9.3 28.51 1.57 54.45-4.66 80.8-6.23 26.3-10.94 52.95 4.7 82.6 15.56 29.5 24.84 40.34 30.53 48.73 2.84 4.17 4.78 7.73 6.2 12.68 1.4 4.98 2.3 11.38 3 21.28 1.14 16.34-3.26 36.37-7.98 52.35a312 312 0 0 1-9.58 27.52h-268.1l-.1-.22-.54-1.57a340 340 0 0 1-7.72-25.9c-4.08-16-7.82-36.02-6.55-52.13.77-9.66.8-16.04 1.07-21 .28-4.94.8-8.5 2.55-12.7s4.74-9.06 9.98-16.57 12.72-17.63 23.42-32.37c10.75-14.81 14.97-28.9 15.52-42.6.55-13.67-2.56-26.93-6.4-40.08-7.71-26.37-18.33-52.28-9.05-80.77 19.13-58.73 65.5-88.04 111.86-88.04Z" fill="black" fill-opacity="0.2" stroke="black"/></g><path d="M432.5 556.5v69.45l.4.07c120.31 22.8 211.36 128.92 211.6 256.48h-520c.24-127.56 91.29-233.7 211.6-256.48l.4-.07V556.5z" fill="#b98e6a" stroke="black"/><path d="M336 556h97v37s-30.58 9.4-49 9.5c-19.59.1-48-9.5-48-9.5z" fill="black" fill-opacity="0.2"/><path d="M191.5 452.5c-20-77.5 33.5-50 33.5-50C189.18 286.68 217 140 384 140s194.82 146.68 159 262.5c0 0 53.5-27.5 33.5 50-11.1 43-51 43-51 43C519.57 545.9 434 591 384 591s-135.57-45.1-141.5-95.5c0 0-39.9 0-51-43Z" fill="#b98e6a" stroke="black"/><path d="M202.22 410c19.81-10.14 38.7 54.5 30 69-16.5 8.5-55-56.21-30-69m363.96 0c-19.82-10.14-38.7 54.5-30 69 16.5 8.5 55-56.21 30-69M384 469.5c-7.81 0-18-7.5-16-9.5 2-3 8.19 3 16 3s14-6 16-3c1.81 2.17-8.19 9.5-16 9.5" fill="black" fill-opacity="0.2"/><path d="M167.5 722.71c-43.73 58.54-52.5 169.5-52.5 169.5h553s-21.02-104.28-54-157.5c-43.09-69.52-139-102.5-157-107s.49-32.12-8.5-38c-5.88-3.85-12.5 0-12.5 0s-28.43 23.5-50.5 23.5c-22.06 0-49-23.5-49-23.5s-9.5-2.64-14.5 0c-9.5 5 5 35.5-9.5 38-19.79 3.41-103.5 39.43-145 95Z" fill="#147f3c" stroke="black"/><path d="M384.5 641.21c-24.5 0-68.5-15.5-68.5-15.5s43.23 24.5 68.5 24.5 67-26.5 67-26.5-42.5 17.5-67 17.5" fill="black" fill-opacity="0.2"/><mask id="mouthLaugh-a" style="mask-type:alpha" maskUnits="userSpaceOnUse" x="336" y="487" width="97" height="52"><path d="M384.13 487.07c19.7 0 33.7-1.33 47.46 7.54 4.36 2.81-12.42 44.35-47.46 44.35s-51.81-41.54-47.45-44.35c13.75-8.87 27.75-7.54 47.45-7.54" fill="#611519"/></mask><g mask="url(#mouthLaugh-a)"><path d="M384.13 487.07c19.7 0 33.7-1.33 47.46 7.54 4.36 2.81-12.42 44.35-47.46 44.35s-51.81-41.54-47.45-44.35c13.75-8.87 27.75-7.54 47.45-7.54" fill="#611519"/><path d="M384.13 485.3c.04 0 18.64 0 29.27 1.33 7 .87 12.86 5.32 12.86 5.32s-1.76 4.31-3.54 6.65a37 37 0 0 1-4.44 4.44s-9.37-2.44-15.52-3.1c-7.4-.8-18.6-.9-18.63-.9 0 0-11.22.09-18.62.9-6.14.66-15.5 3.09-15.53 3.1 0 0-2.95-2.5-4.43-4.44-1.79-2.34-3.55-6.64-3.55-6.65.02-.01 5.87-4.45 12.86-5.32 10.64-1.33 29.27-1.33 29.27-1.33" fill="#F6F1E4"/><path d="M384.13 519.89c.03 0 9.48.24 15.08 2.22 5.27 1.85 12.42 7.1 12.42 7.1s-5.96 6.92-11.09 9.3c-5.85 2.73-16.38 2.23-16.4 2.22 0 0-10.56.52-16.42-2.21-5.12-2.39-11.07-9.3-11.09-9.32.02-.01 7.16-5.24 12.42-7.1 5.62-1.97 15.08-2.21 15.08-2.21" fill="#E0564B"/></g><path d="m274.5 407.9-4.25-11c27.75 0 40.74-15.53 64.25 0 16.64 11 14.5 21.76 14.5 21.76s-2.75-16.93-41-16.93c-22.71 0-28 19-47 10zm218.59 0 4.23-11c-27.75 0-40.74-15.53-64.25 0-16.64 11-14.5 21.76-14.5 21.76s2.75-16.93 41-16.93c22.71 0 28 19 47 10z" fill="#4B2422"/><g fill="#724133"><path d="M302.87 328.48c14.96-3.04 24.47-23.2 36.31-14.78s-18.13 31.2-35.4 33.54c-14.8 2.02-39.28-5.72-37.33-8.45 1.94-2.74 21.93-7.37 36.42-10.3m163.35 0c-14.97-3.05-24.48-23.2-36.32-14.79s18.14 31.2 35.4 33.54c14.81 2.02 39.28-5.72 37.34-8.45-1.94-2.74-21.94-7.37-36.43-10.3"/><path d="M302.87 328.48c14.96-3.04 24.47-23.2 36.31-14.78s-18.13 31.2-35.4 33.54c-14.8 2.02-39.28-5.72-37.33-8.45 1.94-2.74 21.93-7.37 36.42-10.3Zm163.35 0c-14.97-3.04-24.48-23.2-36.32-14.78s18.14 31.2 35.4 33.54c14.81 2.02 39.28-5.72 37.34-8.45-1.94-2.74-21.94-7.37-36.43-10.3Z" stroke="black"/></g><circle cx="384" cy="123" r="122.5" fill="#724133" stroke="black"/><path d="M384 98.5c117.91 0 213.5 95.59 213.5 213.5 0 20.92-.7 42.62-3.24 60.97-1.27 9.17-3 17.5-5.32 24.46-2.2 6.6-4.92 11.94-8.27 15.63-1.67-4.7-3.34-8.68-6.84-11.31-3.7-2.78-9.32-4-18.83-3.25a.6.6 0 0 0-.43.16 1 1 0 0 0-.2.33q-.06.28-.05.62.02.68.23 1.93c.27 1.64.77 4.07 1.4 7.13 1.28 6.14 3.12 14.87 4.88 25.23 3.5 20.7 6.66 47.86 4.17 73.54-1.3 7.94-5.96 18.6-10.98 28.96-5 10.34-10.37 20.37-13 26.91a265 265 0 0 0-11.58 35.9c-1 4.18-1.7 7.4-2.2 9.6q-.38 1.65-.65 2.52l-.07.2q-.11-.79-.07-2.34c.06-2.32.39-5.84 1.07-10.38 1.36-9.09 4.13-22.25 8.96-38.16 2.2-7.23 7.02-15.42 11.55-24.02 4.5-8.54 8.7-17.48 9.47-26.06 2.2-24.48-.68-48.9-4.6-67.77a215 215 0 0 0-6.2-23.47 90 90 0 0 0-2.75-7.32 16 16 0 0 0-2.08-3.8l-.03-.04-.03-.02-.9-.72c-9.26-7.58-20.1-20.83-32.02-36.6-12.27-16.23-25.7-35.14-39.58-53.08-13.91-17.94-28.35-34.98-42.73-47.53s-28.78-20.7-42.58-20.7c-13.82 0-28.5 8.82-42.98 21.91-14.5 13.1-28.9 30.58-42.21 48.05a1546 1546 0 0 0-19.02 25.67c-5.98 8.2-11.56 15.86-16.61 22.43-5.06 6.57-9.58 12.04-13.44 15.9a35 35 0 0 1-5.25 4.44q-1.75 1.17-3.12 1.48c5.45-10.86 12.59-24.26 17.47-36.46 2.5-6.27 4.43-12.25 5.22-17.43.78-5.16.46-9.63-1.64-12.79l-.39-.58-.42.55c-24.14 31.12-28.06 62.6-33.03 85.54l-.1.13q-.1.18-.23.47-.28.6-.7 1.74c-.57 1.52-1.33 3.75-2.2 6.6a282 282 0 0 0-6.1 23.52c-4.16 19.38-7.75 45.03-5.72 69.85.65 7.96 4.72 17.07 9.06 25.87 4.37 8.84 9 17.35 10.96 24.23 4.61 16.27 7.24 29.17 8.6 37.91.67 4.37 1.02 7.7 1.14 9.88q.04.7.04 1.22l-.48-1.67c-.6-2.1-1.43-5.24-2.6-9.33-2.33-8.19-6-20.3-11.75-36.32-2.5-6.94-7.9-16.05-12.89-25.3-5-9.32-9.6-18.8-10.58-26.6-3.35-26.28-.6-53.78 2.8-74.78 1.7-10.5 3.55-19.38 4.9-25.66.67-3.14 1.21-5.64 1.54-7.37q.25-1.3.32-2.04.05-.37.02-.63 0-.13-.06-.29a.6.6 0 0 0-.36-.35c-4.82-1.69-10.16-1.96-15.04 1.68-4.77 3.55-9 10.76-11.96 23.74-4.26-2.6-7.75-7.43-10.6-14.1-2.96-6.95-5.18-15.83-6.82-26.06-3.28-20.46-4.24-46.22-4.24-72.57 0-117.9 100.57-213.5 218.5-213.5Z" fill="#724133" stroke="black"/></g></svg>