<svg xmlns="http://www.w3.org/2000/svg" viewBox="0 0 768 768" fill="none" shape-rendering="auto"><metadata xmlns:rdf="http://www.w3.org/1999/02/22-rdf-syntax-ns#" xmlns:xsi="http://www.w3.org/2001/XMLSchema-instance" xmlns:dc="http://purl.org/dc/elements/1.1/" xmlns:dcterms="http://purl.org/dc/terms/"><rdf:RDF><rdf:Description><dc:title>ToonHead</dc:title><dc:creator>Johan Melin</dc:creator><dc:source xsi:type="dcterms:URI">https://www.figma.com/community/file/1589627891082866389</dc:source><dcterms:license xsi:type="dcterms:URI">https://creativecommons.org/licenses/by/4.0/</dcterms:license><dc:rights>Remix of „ToonHead” (https://www.figma.com/community/file/1589627891082866389) by „Johan Melin”, licensed under „CC BY 4.0” (https://creativecommons.org/licenses/by/4.0/)</dc:rights></rdf:Description></rdf:RDF></metadata><mask id="viewboxMask"><rect width="768" height="768" rx="0" ry="0" x="0" y="0" fill="#fff" /></mask><g mask="url(#viewboxMask)"><g transform="translate(0 10)"><path d="m551.97 418.5-.04.6-.2 3.28a1729 1729 0 0 0-2.15 53.42c-.8 32.9-.8 73.8 2.42 105.75 3.23 31.96 11.48 72.86 18.93 105.76a1876 1876 0 0 0 13.79 56.68l.13.5h-400.7l.13-.5a1140 1140 0 0 0 3.96-15.44c2.59-10.34 6.1-24.8 9.83-41.24 7.45-32.9 15.7-73.8 18.93-105.76 3.22-31.96 3.22-72.86 2.42-105.76a1729 1729 0 0 0-2.35-56.7l-.04-.61z" fill="#d6b370" stroke="black"/><path d="m503.5 418.5-.03.61-.14 3.28a2427 2427 0 0 0-1.53 53.41c-.57 32.9-.57 73.79 1.72 105.74s8.17 72.84 13.47 105.73a2538 2538 0 0 0 9.8 56.69l.1.54H242.1l.1-.54.61-3.28a2538 2538 0 0 0 9.2-53.4c5.3-32.9 11.17-73.79 13.47-105.74 2.29-31.95 2.29-72.85 1.72-105.74a2427 2427 0 0 0-1.67-56.69l-.03-.6z" fill="black" fill-opacity="0.2" stroke="black"/></g><path d="M432.5 556.5v69.45l.4.07c120.31 22.8 211.36 128.92 211.6 256.48h-520c.24-127.56 91.29-233.7 211.6-256.48l.4-.07V556.5z" fill="#a36b4f" stroke="black"/><path d="M336 556h97v37s-30.58 9.4-49 9.5c-19.59.1-48-9.5-48-9.5z" fill="black" fill-opacity="0.2"/><path d="M191.5 452.5c-20-77.5 33.5-50 33.5-50C189.18 286.68 217 140 384 140s194.82 146.68 159 262.5c0 0 53.5-27.5 33.5 50-11.1 43-51 43-51 43C519.57 545.9 434 591 384 591s-135.57-45.1-141.5-95.5c0 0-39.9 0-51-43Z" fill="#a36b4f" stroke="black"/><path d="M202.22 410c19.81-10.14 38.7 54.5 30 69-16.5 8.5-55-56.21-30-69m363.96 0c-19.82-10.14-38.7 54.5-30 69 16.5 8.5 55-56.21 30-69M384 469.5c-7.81 0-18-7.5-16-9.5 2-3 8.19 3 16 3s14-6 16-3c1.81 2.17-8.19 9.5-16 9.5" fill="black" fill-opacity="0.2"/><path d="M464.2 634.02c104.45 33.8 180.08 132.24 180.3 248.48h-520c.22-116.24 75.85-214.69 180.3-248.48 25.04 36.42 51.31 54.48 79.2 54.48 27.88 0 55.15-18.06 80.2-54.48Z" fill="#b11f1f" stroke="black"/><path d="M384 688c-27.73 0-53.94-18-79-54.58l-21 7.79C314.93 675 348.38 710 384 710s70.07-35 101-68.8l-21-7.78C438.94 670 411.73 688 384 688" fill="black" fill-opacity="0.2"/><mask id="mouthAngry-a" style="mask-type:alpha" maskUnits="userSpaceOnUse" x="335" y="487" width="98" height="48"><path d="M384 528.5c19.7 0 33.84 11.72 47.59 2.85 4.32-2.82-12.59-44.35-47.6-44.35s-51.7 41.53-47.35 44.35c13.75 8.87 27.62-2.85 47.32-2.85" fill="#611519"/></mask><g mask="url(#mouthAngry-a)"><path d="M384.13 538.89c19.7 0 33.7 1.33 47.46-7.54 4.36-2.82-12.42-44.35-47.46-44.35s-51.81 41.53-47.45 44.35c13.75 8.87 27.75 7.54 47.45 7.54" fill="#611519"/><path d="M384.13 540.66c.04 0 18.64 0 29.27-1.33 7-.87 12.86-5.32 12.86-5.32s-1.76-4.3-3.54-6.65a37 37 0 0 0-4.44-4.44 180 180 0 0 0-34.15-2.92c-11.62-.1-22.88.85-34.15 2.92 0 0-2.95 2.5-4.43 4.44-1.8 2.34-3.55 6.64-3.55 6.64.02 0 5.87 4.45 12.86 5.32 10.64 1.33 29.27 1.33 29.27 1.33m0-55.65c.04 0 18.64 0 29.27 1.33 7 .88 12.86 5.32 12.86 5.32s-1.76 4.31-3.54 6.66a37 37 0 0 1-4.44 4.43 180 180 0 0 1-34.15 2.92c-11.62.1-22.88-.85-34.15-2.92 0 0-2.95-2.49-4.43-4.44-1.79-2.33-3.55-6.64-3.55-6.65.02 0 5.87-4.45 12.86-5.32C365.5 485 384.13 485 384.13 485" fill="#F6F1E4"/></g><path d="M383.5 573.5c-6.15 0-28.16-3.85-31.5 0-7.69 8.86 19.77 19 31.5 19s39.19-10.14 31.5-19c-3.34-3.85-25.35 0-31.5 0Z" fill="#d6b370" stroke="black"/><path d="M318.5 380.68c29 10 25.5 40 25.5 40s-8 21-52.5 11c-27.15-6.1-26.5-41-26.5-41s24.5-20 53.5-10" fill="#F6F1E4"/><circle cx="314" cy="407.677" r="27" fill="#4B2422"/><path d="m266.5 375.18 13.5 3s20.5-16 50 3.5c16.64 11 14 32.5 14 32.5s-5.25-29-43.5-29-30.5 28-30.5 28-3.18-5.55-4.25-9.75L263 392.68l-10-7.5h18.5z" fill="#4B2422"/><path d="M448.65 380.68c-29 10-25.5 40-25.5 40s8 21 52.5 11c27.16-6.1 26.5-41 26.5-41s-24.5-20-53.5-10" fill="#F6F1E4"/><circle cx="27" cy="27" r="27" transform="matrix(-1 0 0 1 480.15 380.68)" fill="#4B2422"/><path d="m500.65 375.18-13.5 3s-20.5-16-50 3.5c-16.64 11-14 32.5-14 32.5s5.25-29 43.5-29 30.5 28 30.5 28 3.18-5.55 4.25-9.75l2.75-10.75 10-7.5h-18.5z" fill="#4B2422"/><g fill="#d6b370"><path d="M305.33 338.35c14.64-4.35 32.5 9 39-4s-30.66-19.03-47-13c-14.03 5.17-32 23.5-29 25s22.83-3.8 37-8m158.43 0c-14.64-4.35-32.5 9-39-4s30.65-19.03 47-13c14.02 5.17 32 23.5 29 25s-22.83-3.8-37-8"/><path d="M305.33 338.35c14.64-4.35 32.5 9 39-4s-30.66-19.03-47-13c-14.03 5.17-32 23.5-29 25s22.83-3.8 37-8Zm158.43 0c-14.64-4.35-32.5 9-39-4s30.65-19.03 47-13c14.02 5.17 32 23.5 29 25s-22.83-3.8-37-8Z" stroke="black"/></g><path d="m543.5 402.5 13-5.5s28.48-120.79 13-178c-8.35-30.85-74-47.5-74-47.5s0-81.41-152-47c-105.94 23.98-164.98 107.13-146.5 205 5.57 29.49 13.47 40.2 19 69.5l8.5 3L249 297s70.6-1.43 112-15 100-54.5 100-54.5 39.82 28.78 56.5 54.5c26.2 40.39 26 120.5 26 120.5Z" fill="#d6b370" stroke="black"/></g></svg>